<?xml version="1.0" encoding="UTF-8" standalone="no"?>
<!-- Created with Inkscape (http://www.inkscape.org/) -->

<svg
   width="210mm"
   height="297mm"
   viewBox="0 0 210 297"
   version="1.1"
   id="svg5"
   inkscape:version="1.1 (c68e22c387, 2021-05-23)"
   sodipodi:docname="headerlogo.svg"
   xmlns:inkscape="http://www.inkscape.org/namespaces/inkscape"
   xmlns:sodipodi="http://sodipodi.sourceforge.net/DTD/sodipodi-0.dtd"
   xmlns="http://www.w3.org/2000/svg"
   xmlns:svg="http://www.w3.org/2000/svg">
  <sodipodi:namedview
     id="namedview7"
     pagecolor="#ffffff"
     bordercolor="#999999"
     borderopacity="1"
     inkscape:pageshadow="0"
     inkscape:pageopacity="0"
     inkscape:pagecheckerboard="0"
     inkscape:document-units="mm"
     showgrid="false"
     inkscape:zoom="1.4681257"
     inkscape:cx="255.08715"
     inkscape:cy="563.64383"
     inkscape:window-width="1920"
     inkscape:window-height="1013"
     inkscape:window-x="-9"
     inkscape:window-y="-9"
     inkscape:window-maximized="1"
     inkscape:current-layer="layer1" />
  <defs
     id="defs2" />
  <g
     inkscape:label="Layer 1"
     inkscape:groupmode="layer"
     id="layer1">
    <path
       style="fill:#464c58;fill-opacity:1;stroke:#000000;stroke-width:0.468127"
       d="m 57.796534,192.21729 c -6.852418,-1.73417 -12.510338,-8.11104 -14.301413,-16.11868 -0.276187,-1.23478 -0.502156,-2.80597 -0.502156,-3.49154 v -1.24646 h 18.548976 18.548981 l -0.194853,1.61022 c -1.063374,8.78765 -5.826097,15.76757 -12.591807,18.45372 -2.271777,0.90195 -7.389967,1.32869 -9.507728,0.79274 z"
       id="path2900" />
    <g
       id="path24826"
       transform="matrix(0.26536632,0,0,0.30902168,14.167365,28.082627)">
      <path
         style="color:#000000;fill:#40bf72;stroke-width:1.81637;-inkscape-stroke:none"
         d="m 123.23469,455.93516 c -10.86499,-5.67594 -19.05584,-19.70607 -22.26761,-38.14225 l -0.7713,-4.42742 H 112.175 c 15.10089,0 24.60752,2.74869 31.71503,9.1699 7.41793,6.70166 9.42302,11.13291 10.22863,22.60533 l 0.68637,9.77435 -3.11377,-4.08685 c -9.75776,-12.80716 -33.03645,-33.37588 -37.77321,-33.37588 -3.00122,0 -1.43521,2.57539 4.94098,8.12572 7.94373,6.91483 23.30432,24.13998 26.6415,29.8754 l 2.46101,4.22959 h -8.77628 c -6.92839,0 -10.28687,-0.78914 -15.95057,-3.74789 z"
         id="path55463" />
    </g>
    <g
       id="path24865"
       transform="matrix(0.26536632,0,0,0.30902168,13.636633,28.082627)">
      <path
         style="color:#000000;fill:#40bf72;stroke-width:1.81637;-inkscape-stroke:none"
         d="m 162.90464,448.55554 c -1.61464,-10.60708 -2.07228,-21.72951 -1.01242,-24.6059 0.62653,-1.70038 1.54711,-4.77742 2.04572,-6.83787 1.36134,-5.62558 -2.23044,-4.78876 -5.07823,1.18313 -2.27044,4.76117 -2.44068,4.84794 -4.98817,2.54249 -1.45063,-1.31279 -2.27783,-2.96887 -1.83823,-3.68016 1.28824,-2.08441 15.17312,-10.60314 17.28232,-10.60314 2.60638,0 6.37522,13.81828 6.37522,23.37445 0,8.36751 -4.08976,17.85024 -9.14665,21.20788 -2.80111,1.85987 -2.98323,1.73072 -3.63956,-2.58088 z"
         id="path55471" />
    </g>
    <path
       style="fill:#79a7b6;fill-opacity:1;stroke:#000000;stroke-width:0.065018"
       d="m 78.960516,150.73448 c -0.872332,0.0206 -1.508709,0.83462 -2.084088,1.50034 -1.773835,2.23987 -3.289791,4.73305 -4.844867,7.17751 -1.8208,2.93887 -3.657819,5.86673 -5.386487,8.88058 -0.299124,0.39276 -0.116279,1.07419 0.336224,1.16299 1.154017,0.19264 2.328372,0.10547 3.491122,0.1348 2.160825,-0.0152 4.324033,0.0167 6.483053,-0.0889 0.550986,-0.0308 1.149657,-0.27439 1.396241,-0.89808 0.826704,-1.81308 1.414207,-3.75767 2.046784,-5.66949 0.82291,-2.64803 1.662468,-5.29982 2.240249,-8.03781 0.157349,-0.83902 0.134823,-1.82515 -0.412783,-2.47473 -0.810194,-1.07809 -2.02069,-1.77197 -3.265448,-1.68718 z"
       id="path75435" />
  </g>
</svg>
