<?xml version="1.0" encoding="UTF-8" standalone="no"?>
<!-- Created with Inkscape (http://www.inkscape.org/) -->

<svg
   width="210mm"
   height="297mm"
   viewBox="0 0 210 297"
   version="1.1"
   id="svg5"
   inkscape:version="1.1 (c68e22c387, 2021-05-23)"
   sodipodi:docname="logo.svg"
   xmlns:inkscape="http://www.inkscape.org/namespaces/inkscape"
   xmlns:sodipodi="http://sodipodi.sourceforge.net/DTD/sodipodi-0.dtd"
   xmlns="http://www.w3.org/2000/svg"
   xmlns:svg="http://www.w3.org/2000/svg">
  <sodipodi:namedview
     id="namedview7"
     pagecolor="#ffffff"
     bordercolor="#999999"
     borderopacity="1"
     inkscape:pageshadow="0"
     inkscape:pageopacity="0"
     inkscape:pagecheckerboard="0"
     inkscape:document-units="mm"
     showgrid="false"
     showguides="false"
     inkscape:zoom="1.4681257"
     inkscape:cx="586.12147"
     inkscape:cy="575.90437"
     inkscape:window-width="1920"
     inkscape:window-height="1013"
     inkscape:window-x="-9"
     inkscape:window-y="-9"
     inkscape:window-maximized="1"
     inkscape:current-layer="layer1" />
  <defs
     id="defs2" />
  <g
     inkscape:label="Layer 1"
     inkscape:groupmode="layer"
     id="layer1">
    <path
       style="fill:#464c58;fill-opacity:1;stroke:#000000;stroke-width:0.432523"
       d="m 44.029603,141.58988 c -6.832199,-1.48479 -12.473425,-6.94464 -14.259215,-13.80076 -0.275372,-1.05722 -0.500674,-2.40246 -0.500674,-2.98944 v -1.06722 h 18.494244 18.49425 l -0.194277,1.37867 c -1.060237,7.52395 -5.808907,13.50014 -12.554655,15.80001 -2.265073,0.77224 -7.368161,1.13762 -9.479673,0.67874 z"
       id="path2900" />
    <g
       id="path24826"
       transform="matrix(0.26458333,0,0,0.26458333,0.52916667,1.0583333)">
      <path
         style="color:#000000;fill:#40bf72;stroke-width:1.81637;-inkscape-stroke:none"
         d="m 123.23469,455.93516 c -10.86499,-5.67594 -19.05584,-19.70607 -22.26761,-38.14225 l -0.7713,-4.42742 H 112.175 c 15.10089,0 24.60752,2.74869 31.71503,9.1699 7.41793,6.70166 9.42302,11.13291 10.22863,22.60533 l 0.68637,9.77435 -3.11377,-4.08685 c -9.75776,-12.80716 -33.03645,-33.37588 -37.77321,-33.37588 -3.00122,0 -1.43521,2.57539 4.94098,8.12572 7.94373,6.91483 23.30432,24.13998 26.6415,29.8754 l 2.46101,4.22959 h -8.77628 c -6.92839,0 -10.28687,-0.78914 -15.95057,-3.74789 z"
         id="path55463" />
    </g>
    <g
       id="path24865"
       transform="matrix(0.26458333,0,0,0.26458333,0,1.0583333)">
      <path
         style="color:#000000;fill:#40bf72;stroke-width:1.81637;-inkscape-stroke:none"
         d="m 162.90464,448.55554 c -1.61464,-10.60708 -2.07228,-21.72951 -1.01242,-24.6059 0.62653,-1.70038 1.54711,-4.77742 2.04572,-6.83787 1.36134,-5.62558 -2.23044,-4.78876 -5.07823,1.18313 -2.27044,4.76117 -2.44068,4.84794 -4.98817,2.54249 -1.45063,-1.31279 -2.27783,-2.96887 -1.83823,-3.68016 1.28824,-2.08441 15.17312,-10.60314 17.28232,-10.60314 2.60638,0 6.37522,13.81828 6.37522,23.37445 0,8.36751 -4.08976,17.85024 -9.14665,21.20788 -2.80111,1.85987 -2.98323,1.73072 -3.63956,-2.58088 z"
         id="path55471" />
    </g>
    <path
       style="fill:#464c58;fill-opacity:1;stroke:#000000;stroke-width:0.480581"
       d="m 76.496197,130.94672 c -0.302847,-0.30285 -0.432525,-2.28944 -0.432525,-6.62604 0,-7.1703 -0.349953,-6.6245 4.253032,-6.63312 4.050601,-0.008 6.199637,1.58617 6.199637,4.59769 0,2.61854 -2.263523,4.40832 -5.575194,4.40832 h -1.633543 v 2.34284 2.34284 h -1.189442 c -0.654193,0 -1.384078,-0.19464 -1.621965,-0.43253 z m 6.31302,-7.36185 c 1.263811,-1.72836 0.0159,-3.7396 -2.320282,-3.7396 h -1.181331 v 2.39029 2.3903 l 1.519211,-0.20377 c 0.839722,-0.11263 1.72638,-0.48709 1.982402,-0.83722 z"
       id="path26347" />
    <path
       style="fill:#464c59;fill-opacity:1;stroke:#000000;stroke-width:0.480581"
       d="m 90.323906,130.72955 c -1.870456,-1.19155 -2.454283,-2.11964 -2.624486,-4.17206 -0.197755,-2.38468 0.517051,-4.03676 2.259724,-5.22274 1.078455,-0.73394 1.580946,-0.83253 3.591078,-0.70453 1.857799,0.1183 2.531399,0.33029 3.284151,1.03357 2.604483,2.43332 2.609843,6.22175 0.0122,8.6178 -1.3208,1.21831 -4.924862,1.46582 -6.52267,0.44796 z m 4.665242,-2.314 c 0.308599,-0.44059 0.561094,-1.53988 0.561094,-2.44286 0,-2.16282 -0.768993,-3.24393 -2.307415,-3.24393 -1.699369,0 -2.558484,1.08928 -2.558484,3.24393 0,2.15465 0.859115,3.24393 2.558484,3.24393 0.816181,0 1.359934,-0.24943 1.746321,-0.80107 z"
       id="path26386" />
    <path
       style="fill:#464c59;fill-opacity:1;stroke:#000000;stroke-width:0.480581"
       d="m 101.92818,131.07157 c -0.64573,-0.42108 -1.00577,-7.05425 -0.45867,-8.45035 0.49541,-1.26416 2.3001,-2.05508 4.68923,-2.05508 1.50796,0 1.82771,0.12048 2.03255,0.76587 0.26905,0.84769 -0.28525,1.3792 -1.45603,1.39615 -2.26858,0.0329 -2.31169,0.11217 -2.42151,4.455 -0.10083,3.98774 -0.10786,4.01652 -1.00264,4.10924 -0.4956,0.0514 -1.11791,-0.048 -1.38293,-0.22083 z"
       id="path26425" />
    <path
       style="fill:#464c59;fill-opacity:1;stroke:#000000;stroke-width:0.480581"
       d="m 116.129,131.03317 c -0.42879,-0.27118 -0.53184,-1.42087 -0.54066,-6.0318 -0.006,-3.13322 0.10567,-5.9806 0.24813,-6.32752 0.22655,-0.5517 0.80562,-0.63077 4.61951,-0.63077 h 4.3605 l -0.11405,0.9912 c -0.11302,0.98217 -0.14117,0.99216 -3.08766,1.09589 l -2.9736,0.10469 v 1.7876 1.78761 h 2.70327 2.70328 v 1.05056 c 0,1.04455 -0.0155,1.052 -2.70328,1.30388 l -2.70327,0.25331 v 2.48071 c 0,2.46728 -0.005,2.48068 -0.99121,2.4752 -0.54516,-0.003 -1.22959,-0.15629 -1.52096,-0.34056 z"
       id="path26464" />
    <path
       style="fill:#464c59;fill-opacity:1;stroke:#000000;stroke-width:0.480581"
       d="m 127.88112,131.05829 c -0.39196,-0.25503 -0.54257,-1.89063 -0.68071,-7.39222 l -0.17738,-7.06474 h 1.29879 c 0.92477,0 1.40859,0.20517 1.68008,0.71244 0.23927,0.44708 0.34467,3.16559 0.28301,7.29884 l -0.0983,6.58642 -0.90109,0.0934 c -0.4956,0.0514 -1.12759,-0.054 -1.40442,-0.23411 z"
       id="path26503" />
    <path
       style="fill:#464c59;fill-opacity:1;stroke:#000000;stroke-width:0.480581"
       d="m 134.26271,130.68788 c -1.99588,-1.25074 -2.04171,-3.8912 -0.0851,-4.90299 0.59705,-0.30875 2.01392,-0.67679 3.1486,-0.81789 1.7496,-0.21755 2.08008,-0.376 2.17505,-1.04278 0.17349,-1.21812 -1.06317,-1.67311 -3.76198,-1.38409 -2.15378,0.23065 -2.29721,0.2 -2.29721,-0.49087 0,-1.07102 1.07147,-1.4833 3.851,-1.48177 4.3745,0.002 5.51418,1.3893 5.51835,6.71539 0.002,2.40534 -0.0621,2.61464 -0.98919,3.23538 -1.53061,1.02484 -6.03355,1.12588 -7.5595,0.16962 z m 5.23352,-2.74392 0.10698,-1.45288 -1.54873,0.13389 c -1.37935,0.11925 -2.44981,0.79806 -2.44981,1.55349 0,0.75112 1.26503,1.42891 2.47778,1.32758 1.24719,-0.10421 1.31169,-0.17548 1.41378,-1.56208 z"
       id="path26542" />
    <path
       style="fill:#464c59;fill-opacity:1;stroke:#000000;stroke-width:0.480581"
       d="m 147.9872,131.09115 c -0.99768,-0.63406 -3.96615,-8.97476 -3.56561,-10.01854 0.2476,-0.64523 1.80453,-0.65872 2.33443,-0.0202 0.22194,0.26742 0.83503,2.13268 1.36242,4.14502 0.98019,3.74011 1.73274,4.67304 2.15184,2.66759 0.11392,-0.54516 0.55591,-2.36987 0.98219,-4.05491 l 0.77505,-3.06372 h 1.26153 c 1.0958,0 1.27603,0.12519 1.37188,0.95289 0.113,0.97574 -2.11785,7.39138 -3.08157,8.8622 -0.39588,0.6042 -0.87804,0.81636 -1.84602,0.81228 -0.72061,-0.003 -1.50637,-0.13019 -1.74614,-0.28258 z"
       id="path26581" />
    <path
       style="fill:#464c59;fill-opacity:1;stroke:#000000;stroke-width:0.480581"
       d="m 158.71295,130.70772 c -3.41293,-1.82488 -3.55941,-7.41573 -0.24721,-9.4353 1.73529,-1.05807 4.75237,-0.96398 6.46781,0.20169 1.56087,1.06064 1.90248,1.61907 2.24102,3.66336 0.33398,2.0168 -0.74766,4.5061 -2.39416,5.50994 -1.54751,0.94349 -4.36337,0.97148 -6.06746,0.0603 z m 4.73728,-2.08715 c 0.65344,-0.78734 0.65344,-4.50841 0,-5.29576 -0.58962,-0.71044 -3.02561,-0.80815 -3.57724,-0.14349 -1.02014,1.2292 -0.9351,4.40094 0.14702,5.48306 0.73381,0.73381 2.80682,0.70734 3.43022,-0.0438 z"
       id="path26620" />
    <path
       style="fill:#464c59;fill-opacity:1;stroke:#000000;stroke-width:0.480581"
       d="m 170.35415,130.98994 c -0.54189,-0.31562 -0.62999,-0.93625 -0.62525,-4.40439 0.003,-2.22036 0.13037,-4.23346 0.28296,-4.47357 0.91125,-1.43389 5.87582,-2.10304 6.53027,-0.88018 0.46376,0.86653 -0.14892,1.49696 -1.4548,1.49696 -2.04143,0 -2.12002,0.1473 -2.12002,3.97389 0,1.94498 -0.0985,3.79289 -0.21878,4.10646 -0.24661,0.64266 -1.44595,0.73324 -2.39438,0.18083 z"
       id="path26659" />
    <circle
       id="path71094"
       style="fill:#000000;stroke:#000000;stroke-width:0.264583"
       cx="64.157768"
       cy="184.90411"
       r="0.032006562" />
    <path
       style="fill:#79a7b6;fill-opacity:1;stroke:#000000;stroke-width:0.908187"
       d=""
       id="path74324"
       transform="scale(0.26458333)" />
    <path
       style="fill:#79a7b6;fill-opacity:1;stroke:#000000;stroke-width:0.908187"
       d=""
       id="path74363"
       transform="scale(0.26458333)" />
    <path
       style="fill:#79a7b6;fill-opacity:1;stroke:#000000;stroke-width:0.908187"
       d=""
       id="path74402"
       transform="scale(0.26458333)" />
    <path
       style="fill:#79a7b6;fill-opacity:1;stroke:#000000;stroke-width:0.227047"
       d=""
       id="path74663"
       transform="scale(0.26458333)" />
    <path
       style="fill:#79a7b6;fill-opacity:1;stroke:#000000;stroke-width:0.0600729"
       d="m 65.131137,106.07243 c -0.869757,0.0176 -1.504257,0.71461 -2.077937,1.2846 -1.768602,1.91776 -3.280085,4.05242 -4.830572,6.14536 -1.815428,2.51625 -3.647027,5.02307 -5.370594,7.60352 -0.298241,0.33628 -0.115936,0.91971 0.335232,0.99575 1.150612,0.16494 2.321502,0.0903 3.480821,0.11541 2.154449,-0.013 4.311274,0.0143 6.463924,-0.0761 0.54936,-0.0264 1.146265,-0.23494 1.392121,-0.76894 0.824265,-1.55235 1.410034,-3.21731 2.040745,-4.8542 0.820481,-2.26723 1.657562,-4.53769 2.233639,-6.88195 0.156885,-0.71836 0.134424,-1.56268 -0.411565,-2.11885 -0.807804,-0.92306 -2.014728,-1.51716 -3.255814,-1.44456 z"
       id="path75435" />
  </g>
</svg>
